<?xml version="1.0" encoding="UTF-8"?>
<svg width="160" height="160" viewBox="0 0 160 160" xmlns="http://www.w3.org/2000/svg">
  <rect x="0" y="0" width="20" height="20" fill="#A3D1FF"/>
  <rect x="20" y="0" width="20" height="20" fill="#FF8C8C"/>
  <rect x="40" y="0" width="20" height="20" fill="#FFDD8C"/>
  <rect x="60" y="0" width="20" height="20" fill="#8CFFB2"/>
  <rect x="80" y="0" width="20" height="20" fill="#B28CFF"/>
  <rect x="100" y="0" width="20" height="20" fill="#8CFFDD"/>
  <rect x="120" y="0" width="20" height="20" fill="#FF8CA3"/>
  <rect x="140" y="0" width="20" height="20" fill="red"/>
  <rect x="0" y="20" width="20" height="20" fill="#FF8CA3"/>
  <rect x="20" y="20" width="20" height="20" fill="#8CFFB2"/>
  <rect x="40" y="20" width="20" height="20" fill="#FFDD8C"/>
  <rect x="60" y="20" width="20" height="20" fill="#B28CFF"/>
  <rect x="80" y="20" width="20" height="20" fill="#A3D1FF"/>
  <rect x="100" y="20" width="20" height="20" fill="#8CFFDD"/>
  <rect x="120" y="20" width="20" height="20" fill="#FF8C8C"/>
  <rect x="140" y="20" width="20" height="20" fill="blue"/>
  <rect x="0" y="40" width="20" height="20" fill="#8CFFDD"/>
  <rect x="20" y="40" width="20" height="20" fill="#FFFF8C"/>
  <rect x="40" y="40" width="20" height="20" fill="#FF8C8C"/>
  <rect x="60" y="40" width="20" height="20" fill="#A3D1FF"/>
  <rect x="80" y="40" width="20" height="20" fill="#8CFFB2"/>
  <rect x="100" y="40" width="20" height="20" fill="#FFDD8C"/>
  <rect x="120" y="40" width="20" height="20" fill="#B28CFF"/>
  <rect x="140" y="40" width="20" height="20" fill="green"/>
  <rect x="0" y="60" width="20" height="20" fill="#FFDD8C"/>
  <rect x="20" y="60" width="20" height="20" fill="#B28CFF"/>
  <rect x="40" y="60" width="20" height="20" fill="#8CFFDD"/>
  <rect x="60" y="60" width="20" height="20" fill="#FF8CA3"/>
  <rect x="80" y="60" width="20" height="20" fill="#FFFF8C"/>
  <rect x="100" y="60" width="20" height="20" fill="#A3D1FF"/>
  <rect x="120" y="60" width="20" height="20" fill="#8CFFB2"/>
  <rect x="140" y="60" width="20" height="20" fill="#FF8C8C"/>
  <rect x="0" y="80" width="20" height="20" fill="#B28CFF"/>
  <rect x="20" y="80" width="20" height="20" fill="#FF8CA3"/>
  <rect x="40" y="80" width="20" height="20" fill="#A3D1FF"/>
  <rect x="60" y="80" width="20" height="20" fill="#8CFFDD"/>
  <rect x="80" y="80" width="20" height="20" fill="#FF8C8C"/>
  <rect x="100" y="80" width="20" height="20" fill="#FFDD8C"/>
  <rect x="120" y="80" width="20" height="20" fill="#FFFF8C"/>
  <rect x="140" y="80" width="20" height="20" fill="orange"/>
  <rect x="0" y="100" width="20" height="20" fill="#8CFFB2"/>
  <rect x="20" y="100" width="20" height="20" fill="#FFFF8C"/>
  <rect x="40" y="100" width="20" height="20" fill="#FF8CA3"/>
  <rect x="60" y="100" width="20" height="20" fill="#FFDD8C"/>
  <rect x="80" y="100" width="20" height="20" fill="#B28CFF"/>
  <rect x="100" y="100" width="20" height="20" fill="#8CFFDD"/>
  <rect x="120" y="100" width="20" height="20" fill="#A3D1FF"/>
  <rect x="140" y="100" width="20" height="20" fill="black"/>
  <rect x="0" y="120" width="20" height="20" fill="#FFDD8C"/>
  <rect x="20" y="120" width="20" height="20" fill="#8CFFB2"/>
  <rect x="40" y="120" width="20" height="20" fill="#FF8C8C"/>
  <rect x="60" y="120" width="20" height="20" fill="#FFFF8C"/>
  <rect x="80" y="120" width="20" height="20" fill="#8CFFDD"/>
  <rect x="100" y="120" width="20" height="20" fill="#FF8CA3"/>
  <rect x="120" y="120" width="20" height="20" fill="#A3D1FF"/>
  <rect x="140" y="120" width="20" height="20" fill="#B28CFF"/>
  <rect x="0" y="140" width="20" height="20" fill="#FF8CA3"/>
  <rect x="20" y="140" width="20" height="20" fill="#A3D1FF"/>
  <rect x="40" y="140" width="20" height="20" fill="#8CFFDD"/>
  <rect x="60" y="140" width="20" height="20" fill="#FF8C8C"/>
  <rect x="80" y="140" width="20" height="20" fill="#FFDD8C"/>
  <rect x="100" y="140" width="20" height="20" fill="#8CFFB2"/>
  <rect x="120" y="140" width="20" height="20" fill="#FFFF8C"/>
  <rect x="140" y="140" width="20" height="20" fill="#B28CFF"/>
</svg>
