<?xml version="1.0" encoding="UTF-8"?>

<svg width="40" height="40" viewBox="0 0 40 40" xmlns="http://www.w3.org/2000/svg">
  <rect x="0" y="0" width="10" height="10" fill="#FF0000" />
  <rect x="10" y="0" width="10" height="10" fill="#00FF00" />
  <rect x="20" y="0" width="10" height="10" fill="#0000FF" />
  <rect x="30" y="0" width="10" height="10" fill="#FFFF00" />
  

  <rect x="0" y="10" width="10" height="10" fill="#00FFFF" />
  <rect x="10" y="10" width="10" height="10" fill="#FF00FF" />
  <rect x="20" y="10" width="10" height="10" fill="#800080" />
  <rect x="30" y="10" width="10" height="10" fill="#008080" />
   

  <rect x="0" y="20" width="10" height="10" fill="#800000" />
  <rect x="10" y="20" width="10" height="10" fill="#008000" />
  <rect x="20" y="20" width="10" height="10" fill="#000080" />
  <rect x="30" y="20" width="10" height="10" fill="#808000" />
   

  <rect x="0" y="30" width="10" height="10" fill="#008080" />
  <rect x="10" y="30" width="10" height="10" fill="#800080" />
  <rect x="20" y="30" width="10" height="10" fill="#800000" />
  <rect x="30" y="30" width="10" height="10" fill="#008000" />
</svg>
