<svg width="160" height="160" viewBox="0 0 160 160" xmlns="http://www.w3.org/2000/svg">
  <rect x="0" y="0" width="20" height="20" fill="#ff0000" />
  <rect x="20" y="0" width="20" height="20" fill="#00ff00" />
  <rect x="40" y="0" width="20" height="20" fill="#0000ff" />
  <rect x="60" y="0" width="20" height="20" fill="#ffff00" />
  <rect x="80" y="0" width="20" height="20" fill="#00ffff" />
  <rect x="100" y="0" width="20" height="20" fill="#ff00ff" />
  <rect x="120" y="0" width="20" height="20" fill="#800080" />
  <rect x="140" y="0" width="20" height="20" fill="#008080" />
  <rect x="0" y="20" width="20" height="20" fill="#800000" />
  <rect x="20" y="20" width="20" height="20" fill="#008000" />
  <rect x="40" y="20" width="20" height="20" fill="#000080" />
  <rect x="60" y="20" width="20" height="20" fill="#808000" />
  <rect x="80" y="20" width="20" height="20" fill="#008080" />
  <rect x="100" y="20" width="20" height="20" fill="#800080" />
  <rect x="120" y="20" width="20" height="20" fill="#ff0000" />
  <rect x="140" y="20" width="20" height="20" fill="#00ff00" />
  <rect x="0" y="40" width="20" height="20" fill="#0000ff" />
  <rect x="20" y="40" width="20" height="20" fill="#ffff00" />
  <rect x="40" y="40" width="20" height="20" fill="#00ffff" />
  <rect x="60" y="40" width="20" height="20" fill="#ff00ff" />
  <rect x="80" y="40" width="20" height="20" fill="#800080" />
  <rect x="100" y="40" width="20" height="20" fill="#008080" />
  <rect x="120" y="40" width="20" height="20" fill="#800000" />
  <rect x="140" y="40" width="20" height="20" fill="#008000" />
  <rect x="0" y="60" width="20" height="20" fill="#000080" />
  <rect x="20" y="60" width="20" height="20" fill="#808000" />
  <rect x="40" y="60" width="20" height="20" fill="#008080" />
  <rect x="60" y="60" width="20" height="20" fill="#800080" />
  <rect x="80" y="60" width="20" height="20" fill="#ff0000" />
  <rect x="100" y="60" width="20" height="20" fill="#00ff00" />
  <rect x="120" y="60" width="20" height="20" fill="#0000ff" />
  <rect x="140" y="60" width="20" height="20" fill="#ffff00" />
  <rect x="0" y="80" width="20" height="20" fill="#00ffff" />
  <rect x="20" y="80" width="20" height="20" fill="#ff00ff" />
  <rect x="40" y="80" width="20" height="20" fill="#800080" />
  <rect x="60" y="80" width="20" height="20" fill="#008080" />
  <rect x="80" y="80" width="20" height="20" fill="#800000" />
  <rect x="100" y="80" width="20" height="20" fill="#008000" />
  <rect x="120" y="80" width="20" height="20" fill="#000080" />
  <rect x="140" y="80" width="20" height="20" fill="#808000" />
  <rect x="0" y="100" width="20" height="20" fill="#008080" />
  <rect x="20" y="100" width="20" height="20" fill="#800080" />
  <rect x="40" y="100" width="20" height="20" fill="#ff0000" />
  <rect x="60" y="100" width="20" height="20" fill="#00ff00" />
  <rect x="80" y="100" width="20" height="20" fill="#0000ff" />
  <rect x="100" y="100" width="20" height="20" fill="#ffff00" />
  <rect x="120" y="100" width="20" height="20" fill="#00ffff" />
  <rect x="140" y="100" width="20" height="20" fill="#ff00ff" />
  <rect x="0" y="120" width="20" height="20" fill="#800080" />
  <rect x="20" y="120" width="20" height="20" fill="#008080" />
  <rect x="40" y="120" width="20" height="20" fill="#800000" />
  <rect x="60" y="120" width="20" height="20" fill="#008000" />
  <rect x="80" y="120" width="20" height="20" fill="#000080" />
  <rect x="100" y="120" width="20" height="20" fill="#808000" />
  <rect x="120" y="120" width="20" height="20" fill="#008080" />
  <rect x="140" y="120" width="20" height="20" fill="#800080" />
  <rect x="0" y="140" width="20" height="20" fill="#ff0000" />
  <rect x="20" y="140" width="20" height="20" fill="#00ff00" />
  <rect x="40" y="140" width="20" height="20" fill="#0000ff" />
  <rect x="60" y="140" width="20" height="20" fill="#ffff00" />
  <rect x="80" y="140" width="20" height="20" fill="#00ffff" />
  <rect x="100" y="140" width="20" height="20" fill="#ff00ff" />
  <rect x="120" y="140" width="20" height="20" fill="#800080" />
  <rect x="140" y="140" width="20" height="20" fill="#008080" />
</svg>
